<?xml version="1.0" encoding="UTF-8"?>
<svg xmlns="http://www.w3.org/2000/svg" viewBox="0 0 1400 1500" width="100%" height="100%" style="background:#f8fafc;font-family:-apple-system,BlinkMacSystemFont,'Segoe UI',Roboto,'Noto Sans SC',sans-serif;">
<defs>
<filter id="shadow" x="-4%" y="-4%" width="108%" height="112%"><feDropShadow dx="0" dy="2" stdDeviation="3" flood-color="#000" flood-opacity="0.08"/></filter>
<filter id="shadow-sm" x="-2%" y="-2%" width="104%" height="108%"><feDropShadow dx="0" dy="1" stdDeviation="2" flood-color="#000" flood-opacity="0.06"/></filter>
<marker id="arrow" markerWidth="10" markerHeight="7" refX="10" refY="3.5" orient="auto"><polygon points="0 0, 10 3.5, 0 7" fill="#94a3b8"/></marker>
<linearGradient id="header-grad" x1="0" y1="0" x2="1" y2="0"><stop offset="0%" stop-color="#1e40af"/><stop offset="100%" stop-color="#3b82f6"/></linearGradient>
<linearGradient id="section-title" x1="0" y1="0" x2="1" y2="0"><stop offset="0%" stop-color="#2563eb"/><stop offset="100%" stop-color="#6366f1"/></linearGradient>
</defs>
<rect x="0" y="0" width="1400" height="90" fill="url(#header-grad)"/>
<text x="700" y="38" text-anchor="middle" fill="#fff" font-size="22" font-weight="700">多源异构数据驱动岗位和能力图谱构建与动态演化分析系统</text>
<text x="700" y="64" text-anchor="middle" fill="#bfdbfe" font-size="13">数据流全景图</text>
<rect x="30" y="110" width="1340" height="36" rx="6" fill="url(#section-title)"/>
<text x="700" y="133" text-anchor="middle" fill="#fff" font-size="15" font-weight="600">数据流全景图（自上而下）</text>
<rect x="280" y="170" width="200" height="50" rx="8" fill="#dbeafe" stroke="#93c5fd" stroke-width="1.5" filter="url(#shadow)"/>
<text x="380" y="194" text-anchor="middle" fill="#1e40af" font-size="13" font-weight="600">7大招聘网站</text><text x="380" y="211" text-anchor="middle" fill="#3b82f6" font-size="10">数据源输入</text>
<rect x="620" y="170" width="200" height="50" rx="8" fill="#dbeafe" stroke="#93c5fd" stroke-width="1.5" filter="url(#shadow)"/>
<text x="720" y="194" text-anchor="middle" fill="#1e40af" font-size="13" font-weight="600">简历 PDF/Word</text><text x="720" y="211" text-anchor="middle" fill="#3b82f6" font-size="10">用户上传输入</text>
<line x1="480" y1="195" x2="618" y2="195" stroke="#94a3b8" stroke-width="2" marker-end="url(#arrow)"/>
<line x1="380" y1="220" x2="380" y2="245" stroke="#94a3b8" stroke-width="2"/>
<line x1="720" y1="220" x2="720" y2="245" stroke="#94a3b8" stroke-width="2"/>
<line x1="380" y1="245" x2="600" y2="245" stroke="#94a3b8" stroke-width="2"/>
<line x1="720" y1="245" x2="600" y2="245" stroke="#94a3b8" stroke-width="2"/>
<line x1="600" y1="245" x2="600" y2="255" stroke="#94a3b8" stroke-width="2" marker-end="url(#arrow)"/>
<rect x="480" y="260" width="240" height="50" rx="8" fill="#ccfbf1" stroke="#5eead4" stroke-width="1.5" filter="url(#shadow)"/>
<text x="600" y="284" text-anchor="middle" fill="#0f766e" font-size="13" font-weight="600">Playwright 爬虫 + 简历解析器</text>
<text x="600" y="300" text-anchor="middle" fill="#0f766e" font-size="10">浏览器自动化 · BOSS/智联/猎聘/前程无忧/58/拉勾/应届生</text>
<line x1="600" y1="310" x2="600" y2="335" stroke="#94a3b8" stroke-width="2" marker-end="url(#arrow)"/>
<rect x="480" y="340" width="240" height="50" rx="8" fill="#fff7ed" stroke="#fdba74" stroke-width="1.5" filter="url(#shadow)"/>
<text x="600" y="364" text-anchor="middle" fill="#c2410c" font-size="13" font-weight="600">MongoDB jobs_raw</text>
<text x="600" y="380" text-anchor="middle" fill="#c2410c" font-size="10">原始数据（job_id/title/salary/source）</text>
<line x1="600" y1="390" x2="600" y2="410" stroke="#94a3b8" stroke-width="2"/>
<line x1="600" y1="410" x2="350" y2="410" stroke="#94a3b8" stroke-width="2"/>
<line x1="600" y1="410" x2="850" y2="410" stroke="#94a3b8" stroke-width="2"/>
<line x1="350" y1="410" x2="350" y2="420" stroke="#94a3b8" stroke-width="2" marker-end="url(#arrow)"/>
<line x1="850" y1="410" x2="850" y2="420" stroke="#94a3b8" stroke-width="2" marker-end="url(#arrow)"/>
<rect x="150" y="425" width="400" height="55" rx="6" fill="#fffbeb" stroke="#fcd34d" stroke-width="1.5" filter="url(#shadow)"/>
<text x="350" y="449" text-anchor="middle" fill="#b45309" font-size="13" font-weight="600">DataCleaner 数据清洗引擎</text>
<text x="350" y="467" text-anchor="middle" fill="#b45309" font-size="10">薪资统一 · 技能抽取 · 城市/经验/学历标准化</text>
<rect x="650" y="425" width="400" height="55" rx="6" fill="#fffbeb" stroke="#fcd34d" stroke-width="1.5" filter="url(#shadow)"/>
<text x="850" y="449" text-anchor="middle" fill="#b45309" font-size="13" font-weight="600">多源交叉验证引擎</text>
<text x="850" y="467" text-anchor="middle" fill="#b45309" font-size="10">跨平台去重 · 时滞检测 · 抄袭检测 · 噪声过滤</text>
<line x1="350" y1="480" x2="350" y2="500" stroke="#94a3b8" stroke-width="2"/>
<line x1="850" y1="480" x2="850" y2="500" stroke="#94a3b8" stroke-width="2"/>
<line x1="350" y1="500" x2="600" y2="500" stroke="#94a3b8" stroke-width="2"/>
<line x1="850" y1="500" x2="600" y2="500" stroke="#94a3b8" stroke-width="2"/>
<line x1="600" y1="500" x2="600" y2="510" stroke="#94a3b8" stroke-width="2" marker-end="url(#arrow)"/>
<rect x="480" y="515" width="240" height="50" rx="8" fill="#fff7ed" stroke="#fdba74" stroke-width="1.5" filter="url(#shadow)"/>
<text x="600" y="539" text-anchor="middle" fill="#c2410c" font-size="13" font-weight="600">MongoDB jobs_clean</text>
<text x="600" y="555" text-anchor="middle" fill="#c2410c" font-size="10">标准化清洗数据（skills/location/status）</text>
<line x1="600" y1="565" x2="600" y2="585" stroke="#94a3b8" stroke-width="2"/>
<line x1="600" y1="585" x2="230" y2="585" stroke="#94a3b8" stroke-width="2"/>
<line />
<line x1="600" y1="585" x2="890" y2="585" stroke="#94a3b8" stroke-width="2"/>
<line x1="230" y1="585" x2="230" y2="595" stroke="#94a3b8" stroke-width="2" marker-end="url(#arrow)"/>
<line x1="600" y1="585" x2="600" y2="595" stroke="#94a3b8" stroke-width="2" marker-end="url(#arrow)"/>
<line x1="890" y1="585" x2="890" y2="595" stroke="#94a3b8" stroke-width="2" marker-end="url(#arrow)"/>
<rect x="80" y="600" width="300" height="72" rx="8" fill="#f5f3ff" stroke="#a78bfa" stroke-width="1.5" filter="url(#shadow)"/>
<rect x="80" y="600" width="300" height="26" rx="8" fill="#8b5cf6"/>
<text x="230" y="618" text-anchor="middle" fill="#fff" font-size="12" font-weight="600">Agent1: 新岗位发现+能力更新</text>
<text x="230" y="642" text-anchor="middle" fill="#475569" font-size="10">LLM+RAG+主题聚类 · 时间窗口对比</text>
<text x="230" y="658" text-anchor="middle" fill="#6b7280" font-size="9" font-style="italic">岗位定义生成 · diff日志 · 技能树构建</text>
<rect x="410" y="600" width="300" height="72" rx="8" fill="#f5f3ff" stroke="#a78bfa" stroke-width="1.5" filter="url(#shadow)"/>
<rect x="410" y="600" width="300" height="26" rx="8" fill="#8b5cf6"/>
<text x="560" y="618" text-anchor="middle" fill="#fff" font-size="12" font-weight="600">Agent2: 数据质量+幻觉防控</text>
<text x="560" y="642" text-anchor="middle" fill="#475569" font-size="10">时间序列 · 多模型共识机制</text>
<text x="560" y="658" text-anchor="middle" fill="#6b7280" font-size="9" font-style="italic">抄袭检测 · 知识约束 · 置信度评分</text>
<rect x="740" y="600" width="300" height="72" rx="8" fill="#f5f3ff" stroke="#a78bfa" stroke-width="1.5" filter="url(#shadow)"/>
<rect x="740" y="600" width="300" height="26" rx="8" fill="#8b5cf6"/>
<text x="890" y="618" text-anchor="middle" fill="#fff" font-size="12" font-weight="600">Agent3: 简历解析+人岗匹配</text>
<text x="890" y="642" text-anchor="middle" fill="#475569" font-size="10">NER+LLM · 语义匹配</text>
<text x="890" y="658" text-anchor="middle" fill="#6b7280" font-size="9" font-style="italic">匹配度分析 · 学习路径规划</text>
<line x1="230" y1="672" x2="230" y2="695" stroke="#94a3b8" stroke-width="2"/>
<line x1="560" y1="672" x2="560" y2="695" stroke="#94a3b8" stroke-width="2"/>
<line x1="890" y1="672" x2="890" y2="695" stroke="#94a3b8" stroke-width="2"/>
<line x1="230" y1="695" x2="600" y2="695" stroke="#94a3b8" stroke-width="2"/>
<line x1="890" y1="695" x2="600" y2="695" stroke="#94a3b8" stroke-width="2"/>
<line x1="600" y1="695" x2="600" y2="705" stroke="#94a3b8" stroke-width="2" marker-end="url(#arrow)"/>
<rect x="480" y="710" width="240" height="50" rx="8" fill="#fff7ed" stroke="#fdba74" stroke-width="1.5" filter="url(#shadow)"/>
<text x="600" y="734" text-anchor="middle" fill="#c2410c" font-size="13" font-weight="600">MongoDB jobs_kg</text>
<text x="600" y="750" text-anchor="middle" fill="#c2410c" font-size="10">知识图谱中间存储</text>
<line x1="600" y1="760" x2="600" y2="775" stroke="#94a3b8" stroke-width="2" marker-end="url(#arrow)"/>
<rect x="480" y="780" width="240" height="50" rx="8" fill="#fdf2f8" stroke="#f9a8d4" stroke-width="1.5" filter="url(#shadow)"/>
<text x="600" y="804" text-anchor="middle" fill="#be185d" font-size="13" font-weight="600">Neo4j 图数据库</text>
<text x="600" y="820" text-anchor="middle" fill="#be185d" font-size="10">岗位:技能关系网络 · 时间戳版本追踪</text>
<line x1="600" y1="830" x2="600" y2="845" stroke="#94a3b8" stroke-width="2" marker-end="url(#arrow)"/>
<rect x="480" y="850" width="240" height="50" rx="8" fill="#fef2f2" stroke="#fca5a5" stroke-width="1.5" filter="url(#shadow)"/>
<text x="600" y="874" text-anchor="middle" fill="#dc2626" font-size="13" font-weight="600">FastAPI 后端服务</text>
<text x="600" y="890" text-anchor="middle" fill="#dc2626" font-size="10">图谱查询·人岗匹配·简历解析API</text>
<line x1="600" y1="900" x2="600" y2="915" stroke="#94a3b8" stroke-width="2"/>
<line x1="600" y1="915" x2="350" y2="915" stroke="#94a3b8" stroke-width="2"/>
<line x1="600" y1="915" x2="850" y2="915" stroke="#94a3b8" stroke-width="2"/>
<line x1="350" y1="915" x2="350" y2="925" stroke="#94a3b8" stroke-width="2" marker-end="url(#arrow)"/>
<line x1="850" y1="915" x2="850" y2="925" stroke="#94a3b8" stroke-width="2" marker-end="url(#arrow)"/>
<rect x="160" y="930" width="380" height="50" rx="8" fill="#fef2f2" stroke="#fca5a5" stroke-width="1.5" filter="url(#shadow)"/>
<text x="350" y="954" text-anchor="middle" fill="#dc2626" font-size="13" font-weight="600">全景图谱仪表盘（D3.js / ECharts）</text>
<text x="350" y="970" text-anchor="middle" fill="#dc2626" font-size="10">力导向图·树形图·桑基图 · 按技术栈/级别切换</text>
<rect x="660" y="930" width="380" height="50" rx="8" fill="#fef2f2" stroke="#fca5a5" stroke-width="1.5" filter="url(#shadow)"/>
<text x="850" y="954" text-anchor="middle" fill="#dc2626" font-size="13" font-weight="600">人岗匹配诊断界面</text>
<text x="850" y="970" text-anchor="middle" fill="#dc2626" font-size="10">技能缺失雷达图 · 差距项列表 · 学习路径</text>
<rect x="0" y="1020" width="1400" height="480" fill="#1e293b"/>
<text x="700" y="1050" text-anchor="middle" fill="#94a3b8" font-size="13" font-weight="600">关键技术选型</text>
<line x1="200" y1="1058" x2="1200" y2="1058" stroke="#334155" stroke-width="1"/>
<text x="120" y="1082" text-anchor="middle" fill="#cbd5e1" font-size="11" font-weight="600">大模型</text><text x="120" y="1098" text-anchor="middle" fill="#64748b" font-size="10">讯飞星火/GPT-4</text>
<text x="340" y="1082" text-anchor="middle" fill="#cbd5e1" font-size="11" font-weight="600">RAG框架</text><text x="340" y="1098" text-anchor="middle" fill="#64748b" font-size="10">LangChain/LlamaIndex</text>
<text x="560" y="1082" text-anchor="middle" fill="#cbd5e1" font-size="11" font-weight="600">图数据库</text><text x="560" y="1098" text-anchor="middle" fill="#64748b" font-size="10">Neo4j/NebulaGraph</text>
<text x="780" y="1082" text-anchor="middle" fill="#cbd5e1" font-size="11" font-weight="600">可视化</text><text x="780" y="1098" text-anchor="middle" fill="#64748b" font-size="10">D3.js/ECharts/Vis.js</text>
<text x="1000" y="1082" text-anchor="middle" fill="#cbd5e1" font-size="11" font-weight="600">语义匹配</text><text x="1000" y="1098" text-anchor="middle" fill="#64748b" font-size="10">SBERT/BERTScore</text>
<text x="1220" y="1082" text-anchor="middle" fill="#cbd5e1" font-size="11" font-weight="600">向量数据库</text><text x="1220" y="1098" text-anchor="middle" fill="#64748b" font-size="10">ChromaDB/Milvus</text>


</svg>

